<svg xmlns="http://www.w3.org/2000/svg" width="45.819" height="46.267" viewBox="0 0 45.819 46.267">
  <defs>
    <style>
      .cls-1 {
        fill: none;
        stroke: #0185fe;
        stroke-linecap: round;
        stroke-linejoin: round;
        stroke-width: 3px;
      }
    </style>
  </defs>
  <g id="legal-hammer" transform="translate(0.75 0.716)">
    <path id="Path_3180" data-name="Path 3180" class="cls-1" d="M15.345,8.612,33.313,25.548a2.521,2.521,0,0,1,0,3.567L31.53,30.9a2.517,2.517,0,0,1-3.565,0L11.029,12.937" transform="translate(9.517 7.248)"/>
    <path id="Path_3181" data-name="Path 3181" class="cls-1" d="M3.935,15.788A36.657,36.657,0,0,0,18.2,1.524a2.517,2.517,0,0,1,3.565,0l6.76,6.76a2.517,2.517,0,0,1,0,3.565A34.9,34.9,0,0,0,14.26,26.113a2.521,2.521,0,0,1-3.567,0L3.935,19.355a2.521,2.521,0,0,1,0-3.567Z" transform="translate(2.265 0)"/>
    <path id="Path_3182" data-name="Path 3182" class="cls-1" d="M22.472,23.139h0a2.889,2.889,0,0,0-2.889-2.889H5.139A2.889,2.889,0,0,0,2.25,23.139h0v2.889H22.472Z" transform="translate(1.389 18.023)"/>
    <line id="Line_269" data-name="Line 269" class="cls-1" x2="25.999" transform="translate(0.75 44.05)"/>
  </g>
</svg>
