<svg xmlns="http://www.w3.org/2000/svg" width="61" height="37.139" viewBox="0 0 61 37.139">
  <defs>
    <style>
      .cls-1 {
        fill: none;
        stroke: #0185fe;
        stroke-linecap: round;
        stroke-linejoin: round;
        stroke-width: 3px;
      }
    </style>
  </defs>
  <g id="business-deal-handshake" transform="translate(0.75 -4.016)">
    <line id="Line_248" data-name="Line 248" class="cls-1" x1="13.301" y2="2.542" transform="translate(37.818 28.22)"/>
    <path id="Path_3147" data-name="Path 3147" class="cls-1" d="M22.277,13.109l-8.94,2.954a2.967,2.967,0,0,1-3.622-1.575,3,3,0,0,1,1.364-3.944L19.738,6.19a6.04,6.04,0,0,1,4.8-.278L37.354,10.6" transform="translate(13.701 0)"/>
    <path id="Path_3148" data-name="Path 3148" class="cls-1" d="M3.685,22.855h6.3L19.041,33a3.459,3.459,0,0,0,6.078-2.258V29.158l.451.18a4.269,4.269,0,0,0,5.854-3.962h1.261a3.784,3.784,0,0,0,3.026-6.053L27.62,8.956" transform="translate(4.631 5.385)"/>
    <path id="Path_3149" data-name="Path 3149" class="cls-1" d="M21.364,8.336l-.923-.76a5.4,5.4,0,0,0-5.217-.665L3.75,11.5" transform="translate(4.733 1.543)"/>
    <path id="Path_3150" data-name="Path 3150" class="cls-1" d="M.75,6.751H5.906A2.477,2.477,0,0,1,8.483,9.113V25.654a2.48,2.48,0,0,1-2.578,2.364H.75" transform="translate(0 1.903)"/>
    <path id="Path_3151" data-name="Path 3151" class="cls-1" d="M27.983,28.018H22.828a2.48,2.48,0,0,1-2.578-2.364V9.113a2.477,2.477,0,0,1,2.578-2.361h5.156" transform="translate(30.767 1.903)"/>
    <line id="Line_249" data-name="Line 249" class="cls-1" x1="2.521" y1="2.521" transform="translate(27.229 32.022)"/>
    <line id="Line_250" data-name="Line 250" class="cls-1" x1="3.784" y1="3.784" transform="translate(32.271 26.977)"/>
  </g>
</svg>
