<svg xmlns="http://www.w3.org/2000/svg" width="42.502" height="42.502" viewBox="0 0 42.502 42.502">
  <g id="paper-write" transform="translate(0.75 0.751)">
    <path id="Path_307" data-name="Path 307" d="M15.85,28.752l-6.517.931.931-6.517,16.76-16.76a3.95,3.95,0,0,1,5.587,5.587Z" transform="translate(6.486 3.4)" fill="none" stroke="#0185fe" stroke-linecap="round" stroke-linejoin="round" stroke-width="3"/>
    <rect id="Rectangle_15" data-name="Rectangle 15" width="13.167" height="5.267" rx="0.75" transform="translate(8.65 0.749)" stroke-width="3" stroke="#0185fe" stroke-linecap="round" stroke-linejoin="round" fill="none"/>
    <path id="Path_308" data-name="Path 308" d="M12.75,2.249h5.267A2.633,2.633,0,0,1,20.65,4.882" transform="translate(9.068 1.133)" fill="none" stroke="#0185fe" stroke-linecap="round" stroke-linejoin="round" stroke-width="3"/>
    <path id="Path_309" data-name="Path 309" d="M29.718,31.217v5.267a2.633,2.633,0,0,1-2.633,2.633H3.383A2.633,2.633,0,0,1,.75,36.484V4.882A2.633,2.633,0,0,1,3.383,2.249H8.65" transform="translate(0 1.133)" fill="none" stroke="#0185fe" stroke-linecap="round" stroke-linejoin="round" stroke-width="3"/>
    <line id="Line_2" data-name="Line 2" x2="13.167" transform="translate(8.65 13.916)" fill="none" stroke="#0185fe" stroke-linecap="round" stroke-linejoin="round" stroke-width="3"/>
    <line id="Line_3" data-name="Line 3" x2="5.267" transform="translate(8.65 21.817)" fill="none" stroke="#0185fe" stroke-linecap="round" stroke-linejoin="round" stroke-width="3"/>
  </g>
</svg>
