<svg xmlns="http://www.w3.org/2000/svg" xmlns:xlink="http://www.w3.org/1999/xlink" width="586" height="842" viewBox="0 0 586 842">
  <defs>
    <style>
      .cls-1, .cls-2, .cls-4, .cls-6 {
        fill: #fff;
      }

      .cls-1 {
        font-size: 15px;
        font-family: OpenSans-Bold, Open Sans;
        font-weight: 700;
      }

      .cls-3 {
        fill: #3e3e3e;
        font-size: 16px;
      }

      .cls-3, .cls-6 {
        font-family: Usual-Medium, Usual;
        font-weight: 500;
      }

      .cls-4 {
        stroke: #acbccb;
      }

      .cls-5 {
        fill: #0b5db9;
      }

      .cls-6, .cls-7 {
        font-size: 22px;
      }

      .cls-7 {
        fill: #3a4352;
        font-family: OpenSans-Semibold, Open Sans;
        font-weight: 600;
      }

      .cls-8 {
        stroke: none;
      }

      .cls-9 {
        fill: none;
      }

      .cls-10 {
        filter: url(#Rectangle_132);
      }

      .cls-11 {
        filter: url(#Rectangle_34);
      }
    </style>
    <filter id="Rectangle_34" x="0" y="0" width="586" height="842" filterUnits="userSpaceOnUse">
      <feOffset dy="3" input="SourceAlpha"/>
      <feGaussianBlur stdDeviation="3" result="blur"/>
      <feFlood flood-opacity="0.161"/>
      <feComposite operator="in" in2="blur"/>
      <feComposite in="SourceGraphic"/>
    </filter>
    <filter id="Rectangle_132" x="34" y="736" width="518" height="66" filterUnits="userSpaceOnUse">
      <feOffset dy="3" input="SourceAlpha"/>
      <feGaussianBlur stdDeviation="3" result="blur-2"/>
      <feFlood flood-opacity="0.161"/>
      <feComposite operator="in" in2="blur-2"/>
      <feComposite in="SourceGraphic"/>
    </filter>
  </defs>
  <g id="Group_97" data-name="Group 97" transform="translate(-712 -542)">
    <text id="Rental" class="cls-1" transform="translate(799 710)"><tspan x="-24.386" y="0">Rental</tspan></text>
    <text id="Dealer" class="cls-1" transform="translate(1005 710)"><tspan x="-24.639" y="0">Dealer</tspan></text>
    <g class="cls-11" transform="matrix(1, 0, 0, 1, 712, 542)">
      <rect id="Rectangle_34-2" data-name="Rectangle 34" class="cls-2" width="568" height="824" rx="4" transform="translate(9 6)"/>
    </g>
    <text id="First_Name_" data-name="First Name*" class="cls-3" transform="translate(757 647.014)"><tspan x="0" y="0">First Name*</tspan></text>
    <g id="Rectangle_38" data-name="Rectangle 38" class="cls-4" transform="translate(755 939.014)">
      <rect class="cls-8" width="500" height="40" rx="6"/>
      <rect class="cls-9" x="0.5" y="0.5" width="499" height="39" rx="5.5"/>
    </g>
    <text id="Address_Line_1_" data-name="Address Line 1*" class="cls-3" transform="translate(755 920.014)"><tspan x="0" y="0">Address Line 1*</tspan></text>
    <text id="Business_Name_" data-name="Business Name*" class="cls-3" transform="translate(757 738.014)"><tspan x="0" y="0">Business Name*</tspan></text>
    <g id="Rectangle_41" data-name="Rectangle 41" class="cls-4" transform="translate(755 1030.014)">
      <rect class="cls-8" width="500" height="40" rx="6"/>
      <rect class="cls-9" x="0.5" y="0.5" width="499" height="39" rx="5.5"/>
    </g>
    <text id="Address_Line_2" data-name="Address Line 2" class="cls-3" transform="translate(755 1011.014)"><tspan x="0" y="0">Address Line 2</tspan></text>
    <text id="Last_Name_" data-name="Last Name*" class="cls-3" transform="translate(1022.529 647.014)"><tspan x="0" y="0">Last Name*</tspan></text>
    <text id="State_" data-name="State*" class="cls-3" transform="translate(757 1193.014)"><tspan x="0" y="0">State*</tspan></text>
    <g class="cls-10" transform="matrix(1, 0, 0, 1, 712, 542)">
      <rect id="Rectangle_132-2" data-name="Rectangle 132" class="cls-5" width="500" height="48" rx="6" transform="translate(43 742)"/>
    </g>
    <text id="Zip_Postal_Code_" data-name="Zip/Postal Code*" class="cls-3" transform="translate(1022 1193.014)"><tspan x="0" y="0">Zip/Postal Code*</tspan></text>
    <g id="Rectangle_131" data-name="Rectangle 131" class="cls-4" transform="translate(755 848.014)">
      <rect class="cls-8" width="500" height="40" rx="6"/>
      <rect class="cls-9" x="0.5" y="0.5" width="499" height="39" rx="5.5"/>
    </g>
    <text id="Email_" data-name="Email*" class="cls-3" transform="translate(755 829.014)"><tspan x="0" y="0">Email*</tspan></text>
    <text id="Submit" class="cls-6" transform="translate(1007.01 1315.014)"><tspan x="-38.643" y="0">Submit</tspan></text>
    <text id="Phone_Number_" data-name="Phone Number*" class="cls-3" transform="translate(1020.529 738.014)"><tspan x="0" y="0">Phone Number*</tspan></text>
    <g id="Rectangle_135" data-name="Rectangle 135" class="cls-4" transform="translate(755 1121.014)">
      <rect class="cls-8" width="500" height="40" rx="6"/>
      <rect class="cls-9" x="0.5" y="0.5" width="499" height="39" rx="5.5"/>
    </g>
    <text id="City_" data-name="City*" class="cls-3" transform="translate(755 1102.014)"><tspan x="0" y="0">City*</tspan></text>
    <g id="Rectangle_136" data-name="Rectangle 136" class="cls-4" transform="translate(755 757.014)">
      <rect class="cls-8" width="234" height="40" rx="6"/>
      <rect class="cls-9" x="0.5" y="0.5" width="233" height="39" rx="5.5"/>
    </g>
    <g id="Rectangle_137" data-name="Rectangle 137" class="cls-4" transform="translate(1021 757.014)">
      <rect class="cls-8" width="234" height="40" rx="6"/>
      <rect class="cls-9" x="0.5" y="0.5" width="233" height="39" rx="5.5"/>
    </g>
    <g id="Rectangle_138" data-name="Rectangle 138" class="cls-4" transform="translate(757 666.014)">
      <rect class="cls-8" width="234" height="40" rx="6"/>
      <rect class="cls-9" x="0.5" y="0.5" width="233" height="39" rx="5.5"/>
    </g>
    <g id="Rectangle_139" data-name="Rectangle 139" class="cls-4" transform="translate(1023 666.014)">
      <rect class="cls-8" width="234" height="40" rx="6"/>
      <rect class="cls-9" x="0.5" y="0.5" width="233" height="39" rx="5.5"/>
    </g>
    <g id="Rectangle_140" data-name="Rectangle 140" class="cls-4" transform="translate(755 1212.014)">
      <rect class="cls-8" width="234" height="40" rx="6"/>
      <rect class="cls-9" x="0.5" y="0.5" width="233" height="39" rx="5.5"/>
    </g>
    <g id="Rectangle_141" data-name="Rectangle 141" class="cls-4" transform="translate(1021 1212.014)">
      <rect class="cls-8" width="234" height="40" rx="6"/>
      <rect class="cls-9" x="0.5" y="0.5" width="233" height="39" rx="5.5"/>
    </g>
    <text id="Become_a_Seller" data-name="Become a Seller" class="cls-7" transform="translate(755 601)"><tspan x="0" y="0">Become a Seller</tspan></text>
    <path id="Rectangle_142" data-name="Rectangle 142" class="cls-5" d="M6,0H8A0,0,0,0,1,8,0V824a0,0,0,0,1,0,0H6a6,6,0,0,1-6-6V6A6,6,0,0,1,6,0Z" transform="translate(721 548)"/>
  </g>
</svg>
