<svg xmlns="http://www.w3.org/2000/svg" width="45.535" height="45.669" viewBox="0 0 45.535 45.669">
  <defs>
    <style>
      .cls-1 {
        fill: none;
        stroke: #0185fe;
        stroke-linecap: round;
        stroke-linejoin: round;
        stroke-width: 3px;
      }
    </style>
  </defs>
  <g id="network-arrow" transform="translate(0.786 0.772)">
    <path id="Path_3143" data-name="Path 3143" class="cls-1" d="M25,43.029a21.83,21.83,0,0,1-3,.206A21.249,21.249,0,1,1,43.02,25" transform="translate(0 0)"/>
    <path id="Path_3144" data-name="Path 3144" class="cls-1" d="M11.544,42.309C8.671,38.1,6.749,30.439,6.749,21.694s1.922-16.4,4.795-20.615" transform="translate(5.337 0.305)"/>
    <line id="Line_244" data-name="Line 244" class="cls-1" x2="19.773" transform="translate(0.807 20.583)"/>
    <line id="Line_245" data-name="Line 245" class="cls-1" x2="12.696" transform="translate(30.49 20.583)"/>
    <line id="Line_246" data-name="Line 246" class="cls-1" x2="33.979" transform="translate(5.007 9.257)"/>
    <line id="Line_247" data-name="Line 247" class="cls-1" x2="15.954" transform="translate(3.21 31.909)"/>
    <path id="Path_3145" data-name="Path 3145" class="cls-1" d="M14.71,1.079c2.545,3.734,4.342,10.167,4.719,17.666q.04.77.059,1.535" transform="translate(12.403 0.305)"/>
    <path id="Path_3146" data-name="Path 3146" class="cls-1" d="M13.039,14.612l4.074,13.574a1.259,1.259,0,0,0,2.1.53l2.076-2.076,5.351,5.353a1.265,1.265,0,0,0,1.784,0l3.57-3.57a1.261,1.261,0,0,0,0-1.784l-5.353-5.353,2.076-2.076a1.261,1.261,0,0,0-.529-2.1L14.611,13.038a1.261,1.261,0,0,0-1.572,1.574Z" transform="translate(10.871 10.871)"/>
  </g>
</svg>
