<svg xmlns="http://www.w3.org/2000/svg" width="37" height="45.557" viewBox="0 0 37 45.557">
  <defs>
    <style>
      .cls-1 {
        fill: none;
        stroke: #0185fe;
        stroke-linecap: round;
        stroke-linejoin: round;
        stroke-width: 3px;
      }
    </style>
  </defs>
  <g id="common-file-award" transform="translate(-1.5 0.75)">
    <path id="Path_2736" data-name="Path 2736" class="cls-1" d="M15.532,17.252l-1.2,9.9a1.258,1.258,0,0,0,2.129,1.116L19.91,24.83l3.443,3.441a1.26,1.26,0,0,0,2.13-1.116l-1.211-9.971" transform="translate(10.059 14.608)"/>
    <circle id="Ellipse_12" data-name="Ellipse 12" class="cls-1" cx="7.083" cy="7.083" r="7.083" transform="translate(22.833 19.167)"/>
    <path id="Path_2737" data-name="Path 2737" class="cls-1" d="M17.167,37.584H5.834A2.834,2.834,0,0,1,3,34.751V3.584A2.834,2.834,0,0,1,5.834.75H25.911a2.833,2.833,0,0,1,2,.827L33.337,7a2.834,2.834,0,0,1,.828,2v5.91" transform="translate(0 0)"/>
  </g>
</svg>
